<svg height="512pt" viewBox="0 -78 512.00209 512" width="512pt" xmlns="http://www.w3.org/2000/svg"><path d="m220.089844 9.316406c-17.628906-5.601562-36.777344 1.875-45.992188 17.910156-8.542968 14.863282-6.476562 33.550782 5.113282 46.1875l11.632812 12.6875v31.953126l128.746094 57.570312 91.429687-28.78125c-61.765625 0-124.398437-116.375-190.929687-137.527344zm0 0" fill="#dedcdd"/><path d="m448.273438 228.792969h-392.824219l-19.640625 22.347656s-15.566406 34.921875-8.566406 69.609375c3.199218 15.859375 17.175781 27.246094 33.351562 27.242188 355.429688-.03125 443.898438-1.582032 443.898438-79.242188zm0 0" fill="#dedcdd"/><path d="m57.238281 320.75c-7-34.6875 8.566407-69.609375 8.566407-69.609375l19.640624-22.347656h-29.996093l-19.640625 22.347656s-15.566406 34.921875-8.570313 69.609375c3.203125 15.859375 17.179688 27.246094 33.355469 27.242188 10.09375 0 19.957031 0 29.625-.007813-16.019531-.171875-29.804688-11.496094-32.980469-27.234375zm0 0" fill="#cccacb"/><path d="m152.976562 282.976562h-62.648437c-8.507813 0-15.40625 6.898438-15.40625 15.40625 0 8.511719 6.898437 15.410157 15.40625 15.410157h62.648437c8.511719 0 15.410157-6.898438 15.410157-15.410157 0-8.507812-6.898438-15.40625-15.410157-15.40625zm0 0" fill="#fd747f"/><path d="m411.019531 146.84375c-70.777343 0-93.636719-15.410156-118.769531-30.8125-25.15625-15.410156-52.585938-30.824219-132.5-30.824219-55.515625 0-37.199219-27.070312-112.199219-29.605469-7.203125-.246093-13.847656 3.9375-16.699219 10.558594-11.902343 27.597656-39.101562 102.863282-11.125 160.820313l.007813-.011719 139.339844 5.210938 186.253906 22.347656 102.945313-25.734375 41.816406-36.109375c-15.625-27.652344-43.226563-45.839844-79.070313-45.839844zm0 0" fill="#fd747f"/><path d="m19.734375 226.96875 30.558594 1.144531c-.1875-.378906-.386719-.753906-.570313-1.132812-27.976562-57.957031-.777344-133.222657 11.125-160.824219 1.71875-3.980469 4.8125-7.074219 8.574219-8.859375-5.777344-.753906-11.59375-1.21875-17.410156-1.507813-4.203125-.207031-8.207031-.441406-12.15625 1.300782-4.003907 1.761718-7.273438 5.050781-9.003907 9.066406-14 32.457031-23.554687 67.847656-23.339843 103.402344.117187 19.507812 3.472656 39.308594 12.222656 57.410156zm0 0" fill="#e36263"/><path d="m504.488281 250.46875v18.285156s-15.578125 16.253906-165.933593 16.253906c-150.359376 0-55.542969-33.867187-302.746094-33.867187-6.695313-7.550781-11.976563-15.667969-16.082032-24.160156l.007813-.011719s40.789063-28.992188 101.917969-28.992188 124.117187 40.972657 276.507812 40.972657c0 0 29.449219-53.246094 91.929688-46.265625 9.335937 16.507812 14.398437 36.390625 14.398437 57.785156zm0 0" fill="#606673"/><path d="m65.492188 251.320312h.238281c-6.695313-7.546874-11.902344-15.847656-16.007813-24.339843-2.066406-4.28125-3.824218-8.660157-5.316406-13.101563-15.75 6.75-24.671875 13.089844-24.671875 13.089844l-.007813.011719c.253907.53125.53125 1.054687.796876 1.582031 3.453124 6.863281 7.683593 13.472656 12.839843 19.71875.792969.960938 1.605469 1.914062 2.445313 2.855469 10.5.003906 20.371094.066406 29.683594.183593zm0 0" fill="#545b67"/><g fill="#606673"><path d="m310.011719 58.726562c1.769531.542969 3.628906.894532 5.296875 1.660157 10.941406 5.03125 13.851562 19.070312 5.722656 28.039062-9.085938 10.03125-16.902344 20.972657-23.890625 32.527344-7.742187 12.804687-14.210937 26.226563-19.394531 40.269531-2.855469 7.738282-10.285156 12.523438-18.238282 11.8125-8.265624-.742187-14.667968-6.726562-16.085937-15.019531-.03125-.1875-.144531-.359375-.21875-.542969 0-1.460937 0-2.925781 0-4.386718.453125-1.542969.816406-3.117188 1.371094-4.621094 5.96875-16.132813 13.429687-31.546875 22.339843-46.257813 8.050782-13.285156 17.03125-25.894531 27.539063-37.378906 2.445313-2.675781 5.351563-4.570313 8.863281-5.511719.765625-.203125 1.535156-.394531 2.304688-.59375 1.464844.003906 2.925781.003906 4.390625.003906zm0 0"/><path d="m370.761719 119.375c-.046875 4.609375-1.464844 8.667969-4.585938 11.945312-5.191406 5.453126-9.34375 11.640626-13.183593 18.058594-7.984376 13.339844-14.222657 27.5-19.582032 42.0625-4.824218 13.105469-21.269531 16.441406-30.257812 6.042969-4.472656-5.175781-5.664063-11.234375-3.332032-17.65625 6.9375-19.109375 15.304688-37.550781 26.367188-54.671875 4.191406-6.488281 8.648438-12.800781 14.195312-18.21875 5.269532-5.152344 11.589844-6.652344 18.515626-4.222656 6.894531 2.417968 10.726562 7.574218 11.773437 14.792968.089844.640626.066406 1.296876.089844 1.867188zm0 0"/><path d="m411.835938 129.296875c6.828124.316406 12.492187 3.613281 15.554687 10.425781 3.113281 6.917969 2.148437 13.609375-2.996094 19.257813-5.429687 5.960937-10.035156 12.480469-13.917969 19.484375-3.792968 6.839844-7.304687 13.84375-10.714843 20.886718-3.449219 7.117188-10.691407 11.414063-18.289063 10.492188-7.84375-.949219-13.921875-6.59375-15.472656-14.414062-.691406-3.476563-.363281-6.898438 1.078125-10.132813 6.523437-14.601563 14.011719-28.667969 23.6875-41.457031 2.492187-3.292969 5.242187-6.417969 8.089844-9.414063 3.320312-3.488281 7.585937-5.027343 12.980469-5.128906zm0 0"/></g><path d="m152.988281 275.445312h-62.648437c-12.632813 0-22.910156 10.277344-22.910156 22.90625 0 12.632813 10.277343 22.910157 22.910156 22.910157h62.648437c12.628907 0 22.90625-10.277344 22.90625-22.910157 0-12.628906-10.277343-22.90625-22.90625-22.90625zm0 30.816407h-62.648437c-4.363282 0-7.910156-3.546875-7.910156-7.910157 0-4.359374 3.546874-7.90625 7.910156-7.90625h62.648437c4.359375 0 7.90625 3.546876 7.90625 7.90625 0 4.363282-3.546875 7.910157-7.90625 7.910157zm0 0"/><path d="m76.582031 154.445312c4.144531 0 7.5-3.355468 7.5-7.5v-11.6875c0-4.140624-3.355469-7.496093-7.5-7.496093-4.140625 0-7.5 3.355469-7.5 7.496093v11.6875c0 4.144532 3.359375 7.5 7.5 7.5zm0 0"/><path d="m205.730469 154.445312c4.140625 0 7.5-3.355468 7.5-7.5v-11.6875c0-4.140624-3.359375-7.496093-7.5-7.496093-4.144531 0-7.5 3.355469-7.5 7.496093v11.6875c0 4.144532 3.355469 7.5 7.5 7.5zm0 0"/><path d="m141.15625 160.683594c8.375 0 16.242188-3.503906 21.582031-9.613282 2.726563-3.121093 2.410157-7.855468-.710937-10.582031-3.117188-2.726562-7.855469-2.410156-10.582032.710938-2.492187 2.851562-6.242187 4.484375-10.289062 4.484375s-7.800781-1.632813-10.292969-4.484375c-2.726562-3.121094-7.464843-3.4375-10.582031-.710938-3.117188 2.726563-3.4375 7.460938-.710938 10.582031 5.34375 6.109376 13.210938 9.613282 21.585938 9.613282zm0 0"/><path d="m511.996094 268.664062v-18.226562c0-22.441406-5.316406-43.699219-15.371094-61.480469-13.503906-23.898437-34.851562-40.296875-60.519531-46.648437-.402344-1.898438-1.015625-3.800782-1.867188-5.691406-4.089843-9.101563-11.921875-14.371094-22.046875-14.839844-6.867187-.328125-14.035156 2.484375-18.761718 7.453125-1.59375 1.675781-3.054688 3.292969-4.421876 4.867187-3.886718-1.722656-7.890624-3.867187-12.078124-6.476562.847656-2.539063 1.3125-5.265625 1.34375-8.207032.09375-10.710937-6.859376-20.289062-16.878907-23.804687-7.140625-2.503906-14.894531-1.921875-21.363281 2.089844-2.996094-2.839844-6.195312-5.9375-9.773438-9.460938 2.730469-5.113281 3.617188-10.992187 2.425782-16.828125-3.3125-16.179687-22.003906-25.0625-36.625-17.253906-26.429688-25.683594-49.371094-44.285156-73.691406-52.015625-20.734376-6.589844-43.925782 2.464844-54.761719 21.320313-10.078125 17.535156-7.828125 39.269531 5.53125 54.363281-4.332031-.097657-8.789063-.144531-13.375-.144531-23.964844 0-32.261719-5.0625-42.769531-11.46875-12.855469-7.839844-27.425782-16.722657-69.179688-18.136719-10.378906-.34375-19.738281 5.570312-23.839844 15.085937-3.378906 7.832032-8.347656 20.339844-12.847656 35.457032-1.183594 3.96875 1.078125 8.144531 5.046875 9.328124 3.96875 1.183594 8.148437-1.078124 9.328125-5.046874 4.292969-14.417969 9.027344-26.339844 12.246094-33.800782 1.617187-3.746094 5.460937-6.167968 9.5625-6.03125 37.8125 1.277344 50.042968 8.738282 61.875 15.953125 11.011718 6.714844 22.402344 13.660157 50.574218 13.660157 9.300782 0 19.375.167968 29.796876.777343.273437.046875.550781.085938.832031.101563 15.019531.929687 28.28125 2.59375 40.207031 5.070312 8.652344 1.796875 17.207031 4.144532 25.480469 7.257813-.488281.867187-.960938 1.738281-1.4375 2.609375-7.207031 13.117187-14.304688 26.59375-18.246094 41.113281-2.46875 9.035156 1.878906 20.113281 9.257813 25.777344 10.953124 8.40625 27.347656 5.898437 35.570312-5.074219 3.550781-4.738281 5.066406-10.578125 7.3125-15.96875.871094-2.070312 11.640625-24.777344 12.085938-24.507812.324218.1875 7.363281 4.160156 10.628906 5.808593-.058594.101563-5.238282 9.863281-7.449219 14.78125-4.488281 9.632813-9.578125 19.777344-12.003906 30.164063-1.773438 7.828125.480469 15.742187 5.695312 21.769531 5.078125 5.875 12.777344 9.195313 20.550781 8.671875 10.144532-.679688 18.925782-7.535156 22.417969-17.023438 5.851563-15.890624 12.058594-29.238281 18.984375-40.808593.457032-.765625.910156-1.507813 1.355469-2.226563 3.707031.570313 7.433594 1.046875 11.160156 1.449219.480469.054687 2.902344.300781 3.613281.367187-3.921874 6.34375-7.679687 13.253907-11.386718 20.9375-4.472656 9.265626-8.214844 18.992188-3.648438 29.003907 4.476563 9.820312 15.105469 15.757812 25.820313 14.535156.074219-.011719.144531-.015625.21875-.023437 18.152343-2.285157 22.941406-21.585938 30.472656-35.167969 3.664063-6.609375 8.003906-12.691407 12.902344-18.070313 1.789062-1.964844 3.34375-4.226562 4.480469-6.632812 16.328124 4.476562 30.503906 13.871094 41.199218 27.226562-21.828125.738282-42.816406 8.945313-59.675781 22.773438-9.109375 7.46875-15.601563 15.230468-19.578125 20.675781-.917969 1.253906-1.699219 2.386719-2.351562 3.363281-73.035157-.367187-124.695313-10.367187-161.691407-19.101562-4.03125-.953125-8.070312 1.542968-9.023437 5.574218-.9375 3.980469 1.597656 8.085938 5.578125 9.023438 38.484375 9.085938 92.503906 19.515625 169.285156 19.515625 2.714844 0 5.226563-1.484375 6.554687-3.855469 0-.003906.007813-.019531.027344-.046875.488282-.851562 7.527344-12.871093 21.132813-23.894531 16.835937-13.636719 37.628906-20.15625 59.242187-18.882812.09375.007812.191406.019531.285156.023437 7.589844 14.824219 11.585938 32.253906 11.585938 50.675781v13.867188c-.007812.164062-2.542969.9375-2.8125 1.027344-20.78125 6.9375-43.65625 8.019531-65.339844 9.574218-30.039062 2.152344-60.171875 2.574219-90.28125 2.574219-62.601562 0-81.414062-5.828125-101.4375-12.726563-21.667968-7.472656-43.710937-12.664062-66.488281-15.398437-36.847656-4.425781-74.132813-5.28125-111.210937-5.632813-6.71875-.066406-13.4375-.109374-20.160157-.109374-3.609375-4.363282-6.839843-9.042969-9.65625-13.984376-.523437-.917968 26.707031-12.40625 28.597657-13.082031 20.320312-7.257812 41.871093-11.101562 63.453124-11.101562 21.3125 0 43.171876 5.273437 68.105469 11.652343 5.078125 1.300782 12.316407 3.074219 14.160157-4.109374 1.007812-3.929688-1.46875-8.113282-5.398438-9.128907-26.863281-6.898437-52.238281-13.410156-76.867188-13.410156-34.007812 0-68.730468 8.480469-98.316406 25.429687-.0625.035157-.132812.074219-.195312.113282-8.980469-23.210938-10.554688-51.382813-4.667969-83.902344.734375-4.074219-1.96875-7.976562-6.046875-8.710938-4.074219-.738281-7.976562 1.96875-8.714844 6.042969-7.125 39.386719-4.011718 73.296875 9.261719 100.792969 3.859375 7.988281 8.632813 15.464844 14.195313 22.292969-4.089844 10.914062-13.25 40.105469-7.28125 69.699219 3.890624 19.269531 21.007812 33.257812 40.707031 33.257812 183.109375-.015625 289.945312-.515625 356.359375-10.597656 34.84375-5.289063 57.992187-13.277344 72.84375-25.144532 15.140625-12.101562 22.195312-28.308593 22.195312-51-.003906-.023437-.007812-.042968-.007812-.0625zm-317.667969-189.894531-9.582031-10.453125c-9.417969-10.277344-11.082032-25.296875-4.136719-37.382812 7.335937-12.765625 23.1875-18.957032 37.214844-14.5 22.425781 7.128906 45.382812 26.753906 67.097656 47.8125-1.054687 1.226562-2.101563 2.476562-3.140625 3.738281-5.269531 6.402344-10.167969 13.113281-14.75 20.023437-1.046875 1.578126-2.09375 3.179688-3.132812 4.816407-19.128907-7.574219-41.484376-12.125-69.570313-14.054688zm97.378906 36.675781c-8.414062 13.628907-15.441406 28.128907-20.984375 43.152344-1.710937 4.628906-6.503906 7.667969-11.429687 6.824219-6.828125-1.171875-9.945313-8.242187-7.675781-14.382813 10.84375-29.3125 27.121093-57.949218 48.375-81.171874 5.582031-6.097657 16.28125-3.828126 17.992187 4.546874.660156 3.210938-.253906 6.472657-2.496094 8.949219-8.957031 9.878907-16.808593 20.726563-23.78125 32.082031zm16.761719 1.601563c4.019531-6.113281 8.136719-11.738281 12.429688-16.976563 2.980468 2.929688 5.707031 5.566407 8.289062 8.019532-.023438.03125-.046875.0625-.070312.09375-3.34375 4.078125-9.925782 13.972656-10.257813 14.496094-.070313-.035157-.148437-.070313-.222656-.109376-2.816407-1.414062-9.558594-5.167968-10.167969-5.523437zm52.890625 8.363281c-5.140625 6.699219-10.425781 12.792969-14.792969 20.085938-8.195312 13.699218-14.679687 28.363281-20.1875 43.328125-1.683594 4.570312-6.511718 7.851562-11.425781 7.15625-5.375-.761719-9.628906-6.34375-8.582031-11.746094 1.164062-5.996094 4.085937-11.472656 6.421875-17.058594 4.105469-9.8125 8.734375-19.417969 14.027343-28.648437 5.328126-9.273438 11.109376-18.738282 18.816407-26.257813 3-2.925781 6.8125-3.898437 10.789062-2.503906 6.164063 2.164063 9 10.347656 4.933594 15.644531zm60.3125 22.566406c-.34375 4.289063-4.375 7.558594-6.949219 10.75-9.074218 11.246094-15.4375 24.390626-21.703125 37.328126-3.007812 6.210937-11.261719 8.5625-16.542969 3.628906-3.003906-2.804688-4.246093-7.542969-2.542968-11.355469 7.714844-17.261719 17.113281-34.824219 30.367187-48.761719 6.519531-6.859375 18.03125.230469 17.371094 8.410156zm-6.960937 182.0625c-65.347657 9.917969-171.722657 10.410157-354.109376 10.425782-12.582031 0-23.519531-8.925782-26-21.226563-5.03125-24.9375 2.6875-50.550781 6.332032-60.625h.640625c24.25.058594 48.5.421875 72.726562 1.480469 22.136719.964844 44.335938 2.429688 66.261719 5.722656 17.035156 2.558594 33.433594 6.910156 49.722656 12.441406 34.878906 11.84375 71.710938 14.222657 108.28125 14.222657 40.371094 0 80.996094-.613281 121.144532-5.238281 12.066406-1.390626 24.207031-3.269532 35.890624-6.667969.199219-.058594.398438-.117188.601563-.175781-3.722656 24.347656-21.753906 40.574218-81.492187 49.640624zm0 0"/></svg>